<svg preserveAspectRatio="none" overflow="visible" style="display: block;" width="35" height="35" viewBox="0 0 35 35" fill="none" xmlns="http://www.w3.org/2000/svg">
<g id="REGRA LEI PERGAMINHO">
<path id="Vector (Stroke)" d="M32.8125 29.4383H13.3109V31.1259C13.3108 31.7306 13.1713 32.3026 12.9242 32.8125H31.1259C32.0573 32.8123 32.8123 32.0573 32.8125 31.1259V29.4383ZM22.7829 19.4653C23.387 19.4653 23.8766 19.955 23.8766 20.5591C23.8765 21.163 23.3869 21.6528 22.7829 21.6528H12.2171C11.6131 21.6528 11.1235 21.163 11.1234 20.5591C11.1234 19.955 11.613 19.4653 12.2171 19.4653H22.7829ZM22.7829 13.9037C23.387 13.9037 23.8766 14.3933 23.8766 14.9974C23.8766 15.6014 23.3869 16.0912 22.7829 16.0912H12.2171C11.6131 16.0912 11.1234 15.6014 11.1234 14.9974C11.1234 14.3933 11.613 13.9037 12.2171 13.9037H22.7829ZM22.7829 8.34198C23.3869 8.34198 23.8765 8.83175 23.8766 9.43573C23.8766 10.0398 23.387 10.5295 22.7829 10.5295H12.2171C11.613 10.5295 11.1234 10.0398 11.1234 9.43573C11.1235 8.83175 11.6131 8.34198 12.2171 8.34198H22.7829ZM5.56168 3.87405C5.56145 2.94258 4.80558 2.1875 3.87405 2.1875C2.94272 2.18773 2.18773 2.94272 2.1875 3.87405V8.34198H5.56168V3.87405ZM7.74918 31.1259C7.7494 32.0574 8.50429 32.8124 9.43573 32.8125C10.3673 32.8125 11.1231 32.0574 11.1234 31.1259V28.3446C11.1235 27.7406 11.6131 27.2508 12.2171 27.2508H27.2508V3.87405C27.2506 2.94264 26.4957 2.1876 25.5643 2.1875H7.36252C7.60961 2.69744 7.74911 3.2694 7.74918 3.87405V31.1259ZM29.4383 27.2508H33.9062C34.5102 27.2508 34.9999 27.7406 35 28.3446V31.1259C34.9998 33.2654 33.2654 34.9998 31.1259 35H9.43573C7.29617 34.9999 5.5619 33.2655 5.56168 31.1259V10.5295H1.09375C0.489689 10.5295 0 10.0398 0 9.43573V3.87405C0.000225041 1.7346 1.7346 0.000225041 3.87405 0H25.5643C27.7038 9.69537e-05 29.4381 1.73452 29.4383 3.87405V27.2508Z" fill="#015BF7"/>
</g>
</svg>
