<svg preserveAspectRatio="none" overflow="visible" style="display: block;" width="26" height="26" viewBox="0 0 26 26" fill="none" xmlns="http://www.w3.org/2000/svg">
<g id="SHIELD">
<path id="SHIELD (Stroke)" d="M22.1765 5.14818C19.2607 4.74696 16.1976 3.71216 13 1.38548C9.80243 3.71216 6.73929 4.74696 3.82353 5.14818V14.8185C3.82363 16.848 4.95663 19.0394 6.74216 20.9026C8.4815 22.7177 10.7685 24.1407 13 24.7395C15.2315 24.1407 17.5185 22.7177 19.2578 20.9026C21.0434 19.0394 22.1764 16.848 22.1765 14.8185V5.14818ZM23.4 14.8185C23.3999 17.291 22.0428 19.7749 20.1365 21.7643C18.2225 23.7617 15.678 25.3438 13.1482 25.9816C13.0511 26.0061 12.9489 26.0061 12.8518 25.9816C10.322 25.3438 7.77755 23.7617 5.86354 21.7643C3.95719 19.7749 2.6001 17.291 2.6 14.8185V4.60167C2.6 4.28627 2.83434 4.02155 3.14406 3.98664C6.13756 3.65124 9.29491 2.64812 12.6336 0.123188C12.8508 -0.0410625 13.1492 -0.0410625 13.3664 0.123188C16.7051 2.64812 19.8624 3.65124 22.8559 3.98664C23.1657 4.02155 23.4 4.28627 23.4 4.60167V14.8185Z" fill="#015BF7"/>
</g>
</svg>
