<svg preserveAspectRatio="none" overflow="visible" style="display: block;" width="30" height="30" viewBox="0 0 30 30" fill="none" xmlns="http://www.w3.org/2000/svg">
<g id="PLANET WEB GLOBAL">
<path id="Union" fill-rule="evenodd" clip-rule="evenodd" d="M14.9187 0C15.4557 0 15.9077 0.360493 16.0481 0.852445C22.9292 1.39733 28.4184 6.87814 28.9803 13.7544C29.5557 13.8305 29.9999 14.3225 30 14.9187C30 15.5149 29.5557 16.0059 28.9803 16.0821C28.4199 22.9476 22.9476 28.42 16.0821 28.9803C16.006 29.5557 15.5149 30 14.9187 30C14.3227 29.9998 13.8305 29.5558 13.7544 28.9803C6.87828 28.4183 1.39833 22.929 0.85339 16.0481C0.360992 15.908 2.13941e-05 15.456 0 14.9187C0.000120979 14.3815 0.361 13.9293 0.85339 13.7894C1.39945 6.89691 6.89689 1.3986 13.7894 0.852445C13.9297 0.360478 14.382 0.000187732 14.9187 0ZM10.3002 16.0944C10.4254 19.0593 11.0164 21.6756 11.8747 23.583C12.3743 24.6932 12.9208 25.4791 13.4567 25.9807C13.992 26.4815 14.4928 26.6789 14.9187 26.6791C15.3448 26.6791 15.8454 26.4816 16.3807 25.9807C16.9167 25.4791 17.464 24.6935 17.9637 23.583C18.822 21.6756 19.4138 19.0592 19.5391 16.0944H10.3002ZM3.21699 16.0944C3.64999 20.4591 6.47035 24.122 10.3541 25.7595C10.1293 25.3749 9.9207 24.9688 9.73129 24.5479C8.71643 22.2925 8.07233 19.3345 7.94607 16.0944H3.21699ZM21.8914 16.0944C21.7652 19.3345 21.1221 22.2924 20.1071 24.5479C19.9177 24.9688 19.7092 25.3744 19.4843 25.7586C23.3678 24.121 26.1875 20.4589 26.6205 16.0944H21.8914ZM10.3541 4.07699C6.47005 5.7146 3.64983 9.37886 3.21699 13.744H7.94607C8.07229 10.5034 8.71626 7.54516 9.73129 5.2895C9.92086 4.86827 10.1292 4.46202 10.3541 4.07699ZM15.3638 3.22833C15.2267 3.28496 15.0772 3.32094 14.9187 3.32094C14.7601 3.32089 14.6101 3.28615 14.4727 3.22927C13.6793 3.47054 12.7208 4.3744 11.8747 6.25441C11.0164 8.16194 10.4244 10.7789 10.2993 13.744H19.5391C19.4139 10.779 18.8221 8.16202 17.9637 6.25441C17.1169 4.37281 16.1575 3.46875 15.3638 3.22833ZM19.4834 4.07699C19.7086 4.4619 19.9174 4.86794 20.1071 5.2895C21.1222 7.54523 21.7652 10.5035 21.8914 13.744H26.6205C26.1876 9.37865 23.3677 5.71441 19.4834 4.07699Z" fill="#015BF7"/>
</g>
</svg>
