<svg preserveAspectRatio="none" overflow="visible" style="display: block;" width="35" height="35" viewBox="0 0 35 35" fill="none" xmlns="http://www.w3.org/2000/svg">
<g id="JUR&#195;&#141;DICO">
<path id="JUR&#195;&#141;DICO (Stroke)" d="M16.6667 2.37612C16.6667 1.91208 17.0398 1.53591 17.5 1.5359C17.9602 1.5359 18.3333 1.91208 18.3333 2.37612V5.15386C22.5264 8.01894 27.741 9.16382 32.7996 8.38016C33.2542 8.31 33.679 8.62427 33.7491 9.08253C33.819 9.54111 33.5072 9.97032 33.0525 10.0409C32.1696 10.1777 31.2819 10.2602 30.3951 10.2892C31.0955 12.3982 31.7965 14.5071 32.4969 16.616C33.3169 19.0852 34.1367 21.5545 34.9568 24.0237C35.0774 24.3871 34.9392 24.7867 34.6204 24.9952C31.3748 27.1154 27.1183 27.1154 23.8727 24.9952C23.5539 24.7867 23.4157 24.3871 23.5363 24.0237C24.3563 21.5545 25.1762 19.0852 25.9962 16.616C26.7015 14.4923 27.4057 12.3681 28.111 10.2444C24.6642 10.0009 21.2982 8.95353 18.3333 7.14938V31.7837H26.3651C26.8254 31.7837 27.1985 32.1598 27.1985 32.6239C27.1985 33.0879 26.8254 33.4641 26.3651 33.4641H8.5904C8.13016 33.4641 7.75706 33.0879 7.75706 32.6239C7.75706 32.1598 8.13016 31.7837 8.5904 31.7837H16.6667V7.14391C13.6882 8.95201 10.3344 10.0197 6.89334 10.263C7.59664 12.3807 8.30051 14.4983 9.00382 16.616C9.82385 19.0852 10.6437 21.5545 11.4637 24.0237C11.5843 24.3871 11.4461 24.7867 11.1273 24.9952C7.88175 27.1154 3.62517 27.1154 0.379598 24.9952C0.0607701 24.7867 -0.0774266 24.3871 0.0432228 24.0237C0.863257 21.5545 1.68307 19.0852 2.5031 16.616C3.20187 14.512 3.89962 12.4075 4.59839 10.3035C3.7126 10.2711 2.82504 10.184 1.94103 10.0398C1.48683 9.9656 1.17853 9.53397 1.252 9.07596C1.32567 8.61828 1.75285 8.30747 2.20687 8.38125C7.25488 9.20443 12.4284 8.02576 16.6667 5.15277V2.37612ZM4.08298 17.1499C3.33426 19.4043 2.58558 21.6588 1.83686 23.9132C4.26318 25.2347 7.24253 25.2344 9.66897 23.9132C8.92026 21.6588 8.17157 19.4043 7.42286 17.1499C6.86625 15.4739 6.30952 13.7977 5.75292 12.1217C5.19634 13.7976 4.63955 15.474 4.08298 17.1499ZM27.5771 17.1499C26.8284 19.4045 26.0787 21.6587 25.3299 23.9132C27.7563 25.2347 30.7356 25.2344 33.1621 23.9132C32.4134 21.6589 31.6657 19.4042 30.917 17.1499C30.3604 15.4739 29.8026 13.7977 29.246 12.1217C28.6894 13.7976 28.1337 15.474 27.5771 17.1499Z" fill="#015BF7"/>
</g>
</svg>
